<svg width="66" height="80" viewBox="0 0 66 80" fill="none" xmlns="http://www.w3.org/2000/svg">
<g clip-path="url(#clip0_20_14)">
<mask id="mask0_20_14" style="mask-type:luminance" maskUnits="userSpaceOnUse" x="0" y="0" width="66" height="80">
<path d="M65.9902 0.179932H0V79.8199H65.9902V0.179932Z" fill="white"/>
</mask>
<g mask="url(#mask0_20_14)">
<path d="M38.9394 0.179932C22.8394 0.179932 17.1596 25.1799 11.8696 45.2799C9.9596 43.3499 4.05954 37.47 4.05954 37.48C2.87954 36.31 1.50965 36.69 0.679655 37.5C-0.160345 38.34 -0.280345 39.89 0.679655 40.83C0.729655 40.87 8.65938 48.7799 11.3994 51.5199C12.1594 52.2599 13.2496 52.6899 14.3496 52.0499C15.4796 51.3499 15.6394 50.12 15.6694 50.12C25.0694 8.02999 33.4694 4.88989 38.9194 4.88989C43.5094 4.88989 48.7895 8.27993 48.7895 15.0499C55.6295 15.0499 59.9196 24.0299 54.4096 29.5599C58.9696 31.7699 61.0097 34.4799 61.0097 37.9099C61.0097 41.3399 58.1297 44.86 53.9297 44.85C49.7597 44.85 47.6396 42.1699 44.3896 42.1599C42.9196 42.1599 42.0195 43.3499 42.0195 44.5199V53.0199H35.8896V44.5499C35.8696 43.2199 34.8997 42.1799 33.6797 42.1799C33.6597 42.1799 33.1596 42.19 33.1596 42.21L24.9497 43.22C23.9597 43.37 23.0395 44.4399 23.0395 45.5499C23.0395 46.8499 24.1095 47.9299 25.5595 47.9099C25.7495 47.9099 25.9897 47.9099 25.9697 47.8899C25.9597 47.8899 31.1694 47.23 31.1694 47.23V55.62C31.1694 56.68 32.3694 57.72 33.4594 57.72H44.3696C45.6396 57.72 46.7397 56.63 46.7397 55.34V47.6799C49.0197 49.0699 52.1996 49.61 53.8296 49.61C59.9496 49.61 65.7895 44.8 65.7695 37.75C65.7495 31.36 60.8496 28.1699 60.8496 28.1699C63.7196 20.5199 59.0795 13.14 53.0595 11.09C50.8895 3.19997 44.1494 0.159912 38.9394 0.159912V0.179932ZM32.0698 67.1C32.0698 69.08 34.2796 70.27 37.9096 72C40.7896 73.35 42.4497 74.7799 42.4497 75.9199C42.4497 77.7799 40.4496 78.4299 38.5796 78.4299C35.6796 78.4299 33.9697 77.2799 33.0298 74.6899L32.9497 74.47H32.7197C32.2097 74.47 31.8096 74.4899 31.5796 74.7699C31.3796 75.0399 31.4395 75.38 31.5195 75.72L32.1596 78.37C32.3296 79.02 32.5696 79.12 33.5996 79.33C34.0496 79.41 36.3994 79.8099 38.3794 79.8099C43.9094 79.8099 46.3794 77.56 46.3794 75.34C46.3794 73.72 44.7698 72.1699 41.2998 70.4399L39.7197 69.6799C37.3497 68.5499 35.9096 67.8799 35.9096 66.6899C35.9096 65.4999 37.3995 64.73 39.5195 64.73C42.2895 64.73 43.0296 66.28 43.3696 67.63L43.4297 67.88H43.6894C44.3094 67.88 44.6994 67.83 44.9194 67.58C45.0494 67.44 45.1098 67.2399 45.0698 67.0199L44.8496 64.72C44.7896 63.98 44.2294 63.87 43.4394 63.71C42.5094 63.54 41.3997 63.34 39.7197 63.34C34.9097 63.34 32.0395 64.75 32.0395 67.1M48.0097 71.75C48.0097 75.75 51.4796 79.8099 58.1396 79.8099C61.4896 79.8099 63.3798 79.0399 64.7798 78.2999L65.1596 78.1L64.5498 77.4099L64.5796 77.4399C64.4296 77.2399 64.3193 77.1899 64.0893 77.1899L63.7695 77.2999C63.2695 77.5299 61.7297 78.25 58.9297 78.25C55.4897 78.25 51.7895 76.0099 51.7895 71.0699C51.7895 66.1299 55.8095 64.71 59.2295 64.71C61.6995 64.71 63.0097 65.5899 63.2597 67.4099L63.2895 67.71H63.5996C63.8896 67.71 64.6694 67.71 64.6694 67.13V64.3899C64.6694 63.7099 63.8998 63.6199 63.5698 63.5699L63.2495 63.5199C62.4595 63.4199 61.6997 63.3199 59.6997 63.3199C52.9197 63.3199 48.0097 66.86 48.0097 71.73M22.9394 63.5399L16.9497 63.59L12.9594 63.5199H12.3496C11.9896 63.5099 11.7397 63.76 11.7397 64.13C11.7397 64.3 11.7394 64.84 12.3994 64.84C14.8094 64.84 14.8994 65.03 14.9194 65.96L14.9394 66.5399L14.9795 69.01V74.3199C14.9795 75.1999 14.9496 76.6 14.8896 77.73C14.8696 78.06 14.8595 78.36 12.7295 78.36C12.1295 78.36 11.7695 78.4799 11.7695 79.0699C11.7695 79.2399 11.7696 79.7 12.3496 79.7H12.4795C12.7295 79.6899 13.4097 79.6599 16.7397 79.6599C20.2897 79.6599 20.9995 79.7 21.2495 79.7H21.3696C21.8396 79.7 22.2397 79.6599 22.2397 79.0699C22.2397 78.4199 21.6998 78.36 20.7998 78.36C18.6598 78.36 18.6394 78.05 18.6294 77.73C18.5794 76.69 18.5395 75.2899 18.5395 74.3199V72.3999H20.3393C23.0893 72.3999 23.3895 72.48 23.7895 74.59C23.8995 75.05 24.2696 75.11 24.5796 75.11C25.2296 75.11 25.2998 74.76 25.2998 74.6L25.2495 73.8099C25.1895 73.2199 25.1596 72.6199 25.1596 72.0199V68.7699C25.1596 68.2799 24.5697 68.2799 24.2597 68.2799C23.7397 68.2799 23.6195 68.6099 23.2895 70.1499C23.1395 70.7299 21.9997 71.0699 20.1797 71.0699H18.5595V66.2899C18.5595 64.9899 18.7896 64.98 19.0796 64.97C20.1296 64.92 22.6794 64.83 23.4394 64.83C24.1994 64.83 24.8395 64.9999 25.2695 65.2799C26.6295 66.1199 27.3295 66.6999 27.7495 67.0399C28.1595 67.3699 28.3895 67.5699 28.7295 67.5699C28.9295 67.5699 29.5097 67.5699 29.5097 67.0699C29.5097 66.9499 29.4595 66.8399 29.2695 66.4199C29.0495 65.9299 28.6797 65.1199 28.1997 63.8899C28.0597 63.4999 27.6095 63.5 26.7695 63.5L22.9594 63.5399H22.9394ZM60.9297 5.01001H61.7798C62.1698 5.01001 62.4393 4.94997 62.5893 4.83997C62.7393 4.72997 62.8198 4.56999 62.8198 4.35999C62.8198 4.15999 62.7396 3.99989 62.5996 3.88989C62.4596 3.77989 62.1695 3.71997 61.7295 3.71997H60.9394V5.01001H60.9297ZM63.8593 7.42993H63.0097C62.4797 6.45993 62.1197 5.91992 61.9697 5.78992C61.7997 5.66992 61.5996 5.60999 61.3496 5.60999H60.9394V7.42993H60.2397V3.13989H61.7295C62.1695 3.13989 62.5095 3.16999 62.7495 3.23999C62.9895 3.29999 63.1796 3.42989 63.3296 3.63989C63.4796 3.83989 63.5595 4.06993 63.5595 4.29993C63.5595 4.58993 63.4497 4.85998 63.2397 5.09998C63.0297 5.33998 62.7296 5.48001 62.3296 5.51001C62.5796 5.59001 62.9196 5.93998 63.3296 6.59998L63.8593 7.42993ZM61.9897 8.55994C62.9097 8.55994 63.6893 8.23996 64.3393 7.57996C64.9893 6.91996 65.3296 6.13997 65.3296 5.21997C65.3296 4.29997 64.9996 3.52 64.3496 2.87C63.6896 2.22 62.9097 1.88989 61.9897 1.88989C61.0697 1.88989 60.2796 2.21999 59.6396 2.85999C58.9896 3.50999 58.6696 4.29996 58.6596 5.20996C58.6596 6.12996 58.9894 6.91995 59.6294 7.56995C60.2794 8.21995 61.0597 8.54993 61.9897 8.54993M61.9995 1.22998C63.0895 1.22998 64.0195 1.61989 64.8095 2.38989C65.5995 3.16989 65.9897 4.11996 65.9897 5.20996C65.9897 6.29996 65.5998 7.24991 64.8198 8.02991C64.0398 8.80991 63.0995 9.19995 61.9995 9.19995C60.8995 9.19995 59.9494 8.81992 59.1694 8.03992C58.3794 7.25992 57.9897 6.30996 57.9897 5.20996C57.9897 4.10996 58.3794 3.17989 59.1694 2.38989C59.9494 1.60989 60.8895 1.21997 61.9995 1.21997V1.22998Z" fill="#3E694E"/>
</g>
</g>
<defs>
<clipPath id="clip0_20_14">
<rect width="65.9902" height="79.64" fill="white" transform="translate(0 0.179932)"/>
</clipPath>
</defs>
</svg>
