<svg width="431" height="72" viewBox="0 0 431 72" fill="none" xmlns="http://www.w3.org/2000/svg">
<g clip-path="url(#clip0_1404_18)">
<path d="M61.24 60.67H30.79L33.26 43.23C33.95 43.15 36.8 42.53 37.48 42.34C45.1 40.21 52.44 36.51 57.79 28.31C61.04 23.34 63.42 18.03 63.22 11.87C63.02 5.85997 58.93 1.08997 52.99 0.16997C48.74 -0.49003 44.95 0.84997 41.57 3.35997C37.08 6.69997 34.24 11.33 31.83 16.25C29.24 21.55 27.56 27.17 25.91 32.82C25.67 33.63 25.58 33.98 25.58 33.98C18.84 33.41 12.65 30.21 8.54 24.52C6.39 26.08 2.68 28.71 0 30.66C6.13 38.18 13.75 42.63 23.39 43.56C22.26 49.27 21.34 54.96 20.66 60.68C20.46 62.37 20.28 64.06 20.12 65.75C20.04 66.5 19.73 70.44 19.73 70.44L61.23 70.46V60.69L61.24 60.67ZM44.42 14.14C45.86 12.34 47.45 10.72 49.75 10.03C52.19 9.29997 53.57 10.28 53.55 12.82C53.53 15.81 52.34 18.71 50.83 21.24C45.33 30.44 36.42 32.68 36.42 32.68C37.89 26.34 39.86 19.82 44.42 14.15V14.14Z" fill="white"/>
<path d="M102.48 25.7401H112.13V70.4401H102.48V64.0001C98.8401 69.0701 93.6301 71.6001 86.8401 71.6001C80.7001 71.6001 75.4601 69.3201 71.1101 64.7601C66.7601 60.2001 64.5801 54.6401 64.5801 48.0901C64.5801 41.5401 66.7501 35.9001 71.1101 31.3701C75.4601 26.8401 80.7001 24.5801 86.8401 24.5801C93.6301 24.5801 98.8501 27.0801 102.48 32.0901V25.7401ZM78.2601 58.3301C80.9401 61.0401 84.3101 62.4001 88.3601 62.4001C92.4101 62.4001 95.7801 61.0501 98.4601 58.3301C101.14 55.6201 102.48 52.2101 102.48 48.0901C102.48 43.9701 101.14 40.5701 98.4601 37.8501C95.7801 35.1401 92.4101 33.7801 88.3601 33.7801C84.3101 33.7801 80.9401 35.1401 78.2601 37.8501C75.5801 40.5601 74.2401 43.9701 74.2401 48.0901C74.2401 52.2101 75.5801 55.6101 78.2601 58.3301Z" fill="white"/>
<path d="M218.44 71.6001C211.88 71.6001 206.31 69.3401 201.72 64.8101C197.13 60.2801 194.84 54.7101 194.84 48.0901C194.84 41.4701 197.13 35.9001 201.72 31.3701C206.31 26.8401 211.88 24.5801 218.44 24.5801C225 24.5801 230.64 26.8501 235.2 31.3701C239.76 35.9001 242.04 41.4701 242.04 48.0901C242.04 54.7101 239.76 60.2801 235.2 64.8101C230.64 69.3401 225.05 71.6001 218.44 71.6001ZM208.52 58.1901C211.2 60.8701 214.51 62.2101 218.44 62.2101C222.37 62.2101 225.68 60.8701 228.36 58.1901C231.04 55.5101 232.38 52.1401 232.38 48.0901C232.38 44.0401 231.04 40.6701 228.36 37.9901C225.68 35.3101 222.37 33.9701 218.44 33.9701C214.51 33.9701 211.2 35.3101 208.52 37.9901C205.84 40.6701 204.5 44.0401 204.5 48.0901C204.5 52.1401 205.84 55.5101 208.52 58.1901Z" fill="white"/>
<path d="M280.929 25.74H290.579V70.44H280.929V64.72C278.009 69.31 273.389 71.6 267.069 71.6C261.939 71.6 257.799 69.96 254.639 66.68C251.479 63.4 249.899 58.9 249.899 53.18V25.74H259.559V52.2C259.559 55.54 260.449 58.1 262.239 59.89C264.029 61.68 266.469 62.57 269.569 62.57C272.969 62.57 275.709 61.51 277.789 59.4C279.879 57.29 280.919 54.05 280.919 49.7V25.74H280.929Z" fill="white"/>
<path d="M311.499 33.2502C313.939 27.7102 318.529 24.9402 325.269 24.9402V35.4002C321.569 35.1602 318.359 36.0402 315.619 38.0402C312.879 40.0402 311.509 43.3302 311.509 47.9202V70.4502H301.859V25.7402H311.509V33.2502H311.499Z" fill="white"/>
<path d="M365.77 7.86011H375.42V70.4401H365.77V64.0001C362.13 69.0701 356.92 71.6001 350.13 71.6001C343.99 71.6001 338.75 69.3201 334.4 64.7601C330.05 60.2001 327.87 54.6401 327.87 48.0901C327.87 41.5401 330.04 35.9001 334.4 31.3701C338.75 26.8401 343.99 24.5801 350.13 24.5801C356.92 24.5801 362.14 27.0801 365.77 32.0901V7.86011ZM341.54 58.3301C344.22 61.0401 347.59 62.4001 351.64 62.4001C355.69 62.4001 359.06 61.0501 361.74 58.3301C364.42 55.6201 365.76 52.2101 365.76 48.0901C365.76 43.9701 364.42 40.5701 361.74 37.8501C359.06 35.1401 355.69 33.7801 351.64 33.7801C347.59 33.7801 344.22 35.1401 341.54 37.8501C338.86 40.5601 337.52 43.9701 337.52 48.0901C337.52 52.2101 338.86 55.6101 341.54 58.3301Z" fill="white"/>
<path d="M394.279 52.2001C394.989 55.6001 396.629 58.2101 399.199 60.0201C401.759 61.8401 404.889 62.7501 408.589 62.7501C413.719 62.7501 417.559 60.9001 420.119 57.2101L428.079 61.8601C423.669 68.3601 417.139 71.6001 408.499 71.6001C401.229 71.6001 395.359 69.3801 390.889 64.9401C386.419 60.5001 384.189 54.8801 384.189 48.0901C384.189 41.3001 386.389 35.8301 390.809 31.3301C395.219 26.8301 400.879 24.5801 407.799 24.5801C414.359 24.5801 419.729 26.8701 423.939 31.4601C428.139 36.0501 430.239 41.6201 430.239 48.1801C430.239 49.1901 430.119 50.5301 429.879 52.2001H394.299H394.279ZM394.189 44.3401H420.469C419.809 40.7101 418.309 37.9601 415.959 36.1201C413.609 34.2701 410.849 33.3501 407.689 33.3501C404.109 33.3501 401.129 34.3301 398.749 36.3001C396.369 38.2701 394.849 40.9501 394.189 44.3501V44.3401Z" fill="white"/>
<path d="M191.66 60.67H161.21L163.68 43.23C164.37 43.15 167.22 42.53 167.9 42.34C175.52 40.21 182.86 36.51 188.21 28.31C191.46 23.34 193.84 18.03 193.64 11.87C193.44 5.85997 189.35 1.08997 183.41 0.16997C179.16 -0.49003 175.37 0.84997 171.99 3.35997C167.5 6.69997 164.66 11.33 162.25 16.25C159.66 21.55 157.98 27.17 156.33 32.82C156.09 33.63 156 33.98 156 33.98C149.26 33.41 143.07 30.21 138.96 24.52C136.81 26.08 133.1 28.71 130.42 30.66C136.55 38.18 144.17 42.63 153.81 43.56C152.68 49.27 151.76 54.96 151.08 60.68C150.88 62.37 150.7 64.06 150.54 65.75C150.46 66.5 150.15 70.44 150.15 70.44L191.65 70.46V60.69L191.66 60.67ZM174.84 14.14C176.28 12.34 177.87 10.72 180.17 10.03C182.61 9.29997 183.99 10.28 183.97 12.82C183.95 15.81 182.76 18.71 181.25 21.24C175.75 30.44 166.84 32.68 166.84 32.68C168.31 26.34 170.28 19.82 174.84 14.15V14.14Z" fill="white"/>
</g>
<defs>
<clipPath id="clip0_1404_18">
<rect width="430.22" height="71.6" fill="white"/>
</clipPath>
</defs>
</svg>
