<svg width="49" height="49" viewBox="0 0 49 49" fill="none" xmlns="http://www.w3.org/2000/svg">
<g clip-path="url(#clip0_49_393)">
<path d="M24.5 49.8652C38.031 49.8652 49 38.8962 49 25.3652C49 11.8343 38.031 0.865234 24.5 0.865234C10.969 0.865234 0 11.8343 0 25.3652C0 38.8962 10.969 49.8652 24.5 49.8652Z" fill="white"/>
<mask id="mask0_49_393" style="mask-type:luminance" maskUnits="userSpaceOnUse" x="5" y="6" width="39" height="39">
<path d="M43.2835 6.58203H5.7168V44.1487H43.2835V6.58203Z" fill="white"/>
</mask>
<g mask="url(#mask0_49_393)">
<path d="M37.7497 14.3355L26.2525 8.84069C25.033 8.25169 23.5952 8.33139 22.4478 9.0524L10.5842 16.5232C9.43685 17.2442 8.74219 18.5081 8.74808 19.8624L8.7918 32.5672C8.7978 34.0689 9.65907 35.4375 11.0114 36.0926L22.5085 41.5875C23.728 42.1766 25.1659 42.0969 26.3132 41.3758L38.1768 33.9049C39.3242 33.1839 40.0188 31.9201 40.0129 30.5659L39.9907 23.7353L39.9717 17.861C39.9658 16.3592 39.1044 14.9908 37.7546 14.338L37.7497 14.3355Z" fill="#FAFAFA" stroke="#383E47" stroke-width="1.44118" stroke-miterlimit="10"/>
<g opacity="0.8">
<path d="M21.5279 37.1212L13.3302 33.2019C12.4921 32.7958 11.9463 31.9294 11.9434 30.9956L11.9121 21.8223" fill="#FAFAFA"/>
<path d="M21.5279 37.1212L13.3302 33.2019C12.4921 32.7958 11.9463 31.9294 11.9434 30.9956L11.9121 21.8223" stroke="#383E47" stroke-width="1.15294" stroke-miterlimit="10"/>
<path d="M15.0615 21.2148L22.1126 24.6257C22.9463 25.0384 23.4877 25.9027 23.4905 26.8343L23.5188 34.9129" fill="#FAFAFA"/>
<path d="M15.0615 21.2148L22.1126 24.6257C22.9463 25.0384 23.4877 25.9027 23.4905 26.8343L23.5188 34.9129" stroke="#383E47" stroke-width="1.15294" stroke-miterlimit="10"/>
<path d="M11.9305 25.6131L11.916 21.0555C11.9157 20.6467 12.1993 20.423 12.3221 20.3447C12.4449 20.2686 12.771 20.1077 13.1398 20.2861L15.4753 21.4148" fill="#FAFAFA"/>
<path d="M11.9305 25.6131L11.916 21.0555C11.9157 20.6467 12.1993 20.423 12.3221 20.3447C12.4449 20.2686 12.771 20.1077 13.1398 20.2861L15.4753 21.4148" stroke="#383E47" stroke-width="1.15294" stroke-miterlimit="10"/>
<path d="M23.5067 31.8008L23.5237 36.794C23.5239 37.2006 23.2583 37.413 23.1445 37.4846C23.0305 37.5563 22.7245 37.7061 22.358 37.5277L17.1953 35.0649" fill="#FAFAFA"/>
<path d="M23.5067 31.8008L23.5237 36.794C23.5239 37.2006 23.2583 37.413 23.1445 37.4846C23.0305 37.5563 22.7245 37.7061 22.358 37.5277L17.1953 35.0649" stroke="#383E47" stroke-width="1.15294" stroke-miterlimit="10"/>
</g>
</g>
</g>
<defs>
<clipPath id="clip0_49_393">
<rect width="49" height="49" fill="white"/>
</clipPath>
</defs>
</svg>
