<svg width="512" height="512" viewBox="0 0 512 512" fill="none" xmlns="http://www.w3.org/2000/svg">
  <circle cx="256" cy="256" r="256" fill="white"/>
  <path fill-rule="evenodd" clip-rule="evenodd" d="M0 256C0 114.616 114.616 0 256 0C397.384 0 512 114.616 512 256C512 397.384 397.384 512 256 512C114.616 512 0 397.384 0 256Z" fill="#012169"/>
  <path d="M512 256C512 397.385 397.385 512 256 512C114.615 512 0 397.385 0 256" fill="#012169"/>
  <path fill-rule="evenodd" clip-rule="evenodd" d="M281.707 256.005L512 37.357V0H454.474L256.004 191.292L57.4737 0H0V37.357L230.293 256.005L0 474.643V512H57.4737L256.004 320.698L454.474 512H512V474.643L281.707 256.005Z" fill="white"/>
  <path fill-rule="evenodd" clip-rule="evenodd" d="M198.426 256.005L0 69.605V116.129L140.851 256.005L0 395.871V442.395L198.426 256.005ZM313.574 256.005L512 442.395V395.871L371.149 256.005L512 116.129V69.605L313.574 256.005Z" fill="#C8102E"/>
  <path fill-rule="evenodd" clip-rule="evenodd" d="M512 186.182H297.892V0H214.108V186.182H0V325.818H214.108V512H297.892V325.818H512V186.182Z" fill="#C8102E"/>
</svg>

